# xmcd
#
# Track frame offsets: 
#        150
#        11210
#        21630
#        34626
#        49152
#        63239
#        75599
#        86056
#        99457
#        109456
#        119459
#        126656
#        134684
#        147123
#
# Disc length: 2130 seconds
#
# Revision: 0
# Processed by: cddbd v1.5.1PL2 Copyright (c) Steve Scherf et al.
# Submitted via: ExactAudioCopy v0.95a4
#
DISCID=cf08500e
DTITLE=Jay Buckey - Single Handed
DYEAR=1998
DGENRE=Folk
TTITLE0=Single Handed
TTITLE1=Dill Pickle Rag
TTITLE2=Stompin' At The Savoy
TTITLE3=Remington Ride
TTITLE4=Green Grass Of Home
TTITLE5=If The Devil Dreamed
TTITLE6=Doug's Tune, Draggin' The Bow
TTITLE7=Salt Creek
TTITLE8=Lady Blue
TTITLE9=Pike County Breakdown
TTITLE10=Yankee Doodle and Dixie
TTITLE11=Beat The Heat
TTITLE12=The Black Rose
TTITLE13=Black Berry Blossom
EXTD=
EXTT0=
EXTT1=
EXTT2=
EXTT3=
EXTT4=
EXTT5=
EXTT6=
EXTT7=
EXTT8=
EXTT9=
EXTT10=
EXTT11=
EXTT12=
EXTT13=
PLAYORDER=
